<svg width="87" height="68" viewBox="0 0 87 68" fill="none" xmlns="http://www.w3.org/2000/svg">
<path d="M83.1424 67.2974H3.60914C2.79785 67.2974 2.01979 66.9751 1.44612 66.4014C0.872454 65.8278 0.550171 65.0497 0.550171 64.2384V12.2359C0.550171 11.4246 0.872454 10.6465 1.44612 10.0729C2.01979 9.4992 2.79785 9.17692 3.60914 9.17692H23.3701L28.6009 1.37654C28.878 0.955742 29.2548 0.60991 29.6977 0.369767C30.1407 0.129624 30.6361 0.00260661 31.1399 0H55.6117C56.1155 0.00260661 56.6109 0.129624 57.0538 0.369767C57.4967 0.60991 57.8735 0.955742 58.1506 1.37654L63.3815 9.17692H83.1424C83.9537 9.17692 84.7318 9.4992 85.3054 10.0729C85.8791 10.6465 86.2014 11.4246 86.2014 12.2359V64.2384C86.2014 65.0497 85.8791 65.8278 85.3054 66.4014C84.7318 66.9751 83.9537 67.2974 83.1424 67.2974ZM6.66811 61.1794H80.0834V15.2949H61.7296C61.2258 15.2923 60.7304 15.1652 60.2874 14.9251C59.8445 14.6849 59.4678 14.3391 59.1907 13.9183L53.9598 6.11794H32.7917L27.5609 13.9183C27.2838 14.3391 26.907 14.6849 26.4641 14.9251C26.0212 15.1652 25.5258 15.2923 25.0219 15.2949H6.66811V61.1794Z" fill="url(#paint0_linear_14_20)"/>
<path d="M43.3758 55.0615C39.7458 55.0615 36.1972 53.9851 33.179 51.9683C30.1607 49.9516 27.8082 47.0851 26.4191 43.7314C25.0299 40.3776 24.6665 36.6873 25.3746 33.127C26.0828 29.5667 27.8309 26.2964 30.3977 23.7295C32.9645 21.1627 36.2349 19.4147 39.7952 18.7065C43.3555 17.9983 47.0458 18.3618 50.3995 19.7509C53.7532 21.1401 56.6197 23.4926 58.6365 26.5108C60.6532 29.5291 61.7296 33.0776 61.7296 36.7077C61.7296 41.5754 59.7959 46.2438 56.3539 49.6858C52.9119 53.1278 48.2435 55.0615 43.3758 55.0615ZM43.3758 24.4718C40.9558 24.4718 38.5901 25.1894 36.5779 26.5339C34.5657 27.8784 32.9974 29.7894 32.0713 32.0252C31.1452 34.261 30.9029 36.7212 31.375 39.0948C31.8472 41.4683 33.0125 43.6485 34.7237 45.3597C36.435 47.071 38.6152 48.2363 40.9887 48.7084C43.3622 49.1806 45.8225 48.9383 48.0583 48.0122C50.2941 47.086 52.2051 45.5177 53.5496 43.5056C54.8941 41.4934 55.6117 39.1277 55.6117 36.7077C55.6117 33.4625 54.3226 30.3503 52.0279 28.0556C49.7332 25.7609 46.621 24.4718 43.3758 24.4718Z" fill="url(#paint1_linear_14_20)"/>
<defs>
<linearGradient id="paint0_linear_14_20" x1="43.3758" y1="0" x2="43.3758" y2="67.2974" gradientUnits="userSpaceOnUse">
<stop stop-color="#924EB0"/>
<stop offset="1" stop-color="#FF7575"/>
</linearGradient>
<linearGradient id="paint1_linear_14_20" x1="43.3758" y1="18.3538" x2="43.3758" y2="55.0615" gradientUnits="userSpaceOnUse">
<stop stop-color="#924EB0"/>
<stop offset="1" stop-color="#FF7575"/>
</linearGradient>
</defs>
</svg>
